<?xml version="1.0" standalone="no"?>
<svg viewBox="0 0 200 200" xmlns="http://www.w3.org/2000/svg">
  <path fill="#FFE9C4" d="M47.1,-71.3C58.5,-65.9,63.4,-48.6,63.3,-33.4C63.2,-18.3,58.1,-5.3,52,4.4C45.8,14.2,38.7,20.7,34.2,34.3C29.7,47.8,27.9,68.4,19.5,74.5C11.1,80.6,-3.9,72.4,-16.7,65C-29.6,57.5,-40.4,51,-44,41.3C-47.6,31.5,-43.9,18.7,-45.1,6.8C-46.3,-5.1,-52.5,-15.9,-52.6,-27.5C-52.7,-39.1,-46.8,-51.4,-37.1,-57.5C-27.3,-63.6,-13.6,-63.5,2.1,-66.8C17.8,-70,35.7,-76.7,47.1,-71.3Z" transform="translate(100 100)" />
</svg>
